<?xml version="1.0" encoding="UTF-8" standalone="no"?>
<svg
   xmlns:dc="http://purl.org/dc/elements/1.1/"
   xmlns:cc="http://creativecommons.org/ns#"
   xmlns:rdf="http://www.w3.org/1999/02/22-rdf-syntax-ns#"
   xmlns:svg="http://www.w3.org/2000/svg"
   xmlns="http://www.w3.org/2000/svg"
   xmlns:sodipodi="http://sodipodi.sourceforge.net/DTD/sodipodi-0.dtd"
   xmlns:inkscape="http://www.inkscape.org/namespaces/inkscape"
   width="1000"
   height="254.57944"
   viewBox="0 0 999.99995 254.57944"
   version="1.1"
   id="svg65"
   sodipodi:docname="miHoYo old.svg"
   inkscape:version="1.0.2 (e86c870879, 2021-01-15)">
  <metadata
     id="metadata71">
    <rdf:RDF>
      <cc:Work
         rdf:about="">
        <dc:format>image/svg+xml</dc:format>
        <dc:type
           rdf:resource="http://purl.org/dc/dcmitype/StillImage" />
        <dc:title></dc:title>
      </cc:Work>
    </rdf:RDF>
  </metadata>
  <defs
     id="defs69">
    <filter
       inkscape:label="Blur Double"
       inkscape:menu="Blurs"
       inkscape:menu-tooltip="Overlays two copies with different blur amounts and modifiable blend and composite"
       style="color-interpolation-filters:sRGB"
       id="filter1012"
       x="-1.7151795e-05"
       width="1.0000343"
       y="-0.00011956386"
       height="1.0002391">
      <feGaussianBlur
         stdDeviation="0.007318099"
         result="fbSourceGraphic"
         id="feGaussianBlur1004" />
      <feGaussianBlur
         stdDeviation="0.01"
         in="SourceGraphic"
         result="result1"
         id="feGaussianBlur1006" />
      <feComposite
         in2="result1"
         operator="arithmetic"
         in="fbSourceGraphic"
         k2="0.5"
         k3="0.5"
         result="result2"
         id="feComposite1008"
         k1="0"
         k4="0" />
      <feBlend
         in2="fbSourceGraphic"
         mode="normal"
         result="result3"
         id="feBlend1010" />
    </filter>
    <filter
       inkscape:label="Cross Blur"
       inkscape:menu="Blurs"
       inkscape:menu-tooltip="Overlays two copies with different blur amounts and modifiable blend and composite"
       style="color-interpolation-filters:sRGB"
       id="filter1012-3"
       x="-0.027286947"
       width="1.0545739"
       y="-0.19021523"
       height="1.3804305">
      <feGaussianBlur
         stdDeviation="11.64243"
         result="fbSourceGraphic"
         id="feGaussianBlur1004-2" />
      <feGaussianBlur
         stdDeviation="0.01"
         in="SourceGraphic"
         result="result1"
         id="feGaussianBlur1006-0" />
      <feComposite
         in2="result1"
         operator="arithmetic"
         in="fbSourceGraphic"
         k2="0.5"
         k3="0.5"
         result="result2"
         id="feComposite1008-6"
         k1="0"
         k4="0" />
      <feBlend
         in2="fbSourceGraphic"
         mode="normal"
         result="fbSourceGraphic"
         id="feBlend1010-7" />
      <feColorMatrix
         result="fbSourceGraphicAlpha"
         in="fbSourceGraphic"
         values="0 0 0 -1 0 0 0 0 -1 0 0 0 0 -1 0 0 0 0 1 0"
         id="feColorMatrix1461" />
      <feColorMatrix
         id="feColorMatrix1463"
         in="fbSourceGraphic"
         values="1 0 0 0 0 0 1 0 0 0 0 0 1 0 0 -0.2125 -0.7154 -0.0721 1 0 "
         result="colormatrix" />
      <feComposite
         in2="colormatrix"
         id="feComposite1465"
         in="fbSourceGraphic"
         operator="arithmetic"
         k2="1"
         k3="2.06587"
         k4="0"
         result="composite"
         k1="0" />
      <feGaussianBlur
         id="feGaussianBlur1467"
         stdDeviation="7.37159 0.01"
         result="blur1" />
      <feGaussianBlur
         id="feGaussianBlur1469"
         in="composite"
         stdDeviation="0.01 13.8953"
         result="blur2" />
      <feBlend
         in2="blur1"
         id="feBlend1471"
         in="blur2"
         mode="screen"
         result="blend" />
    </filter>
    <filter
       inkscape:label="Blur Double"
       inkscape:menu="Blurs"
       inkscape:menu-tooltip="Overlays two copies with different blur amounts and modifiable blend and composite"
       style="color-interpolation-filters:sRGB"
       id="filter1012-32"
       x="-0.008633689"
       width="1.0172673"
       y="-0.060184859"
       height="1.1203697">
      <feGaussianBlur
         stdDeviation="3.5973705"
         result="fbSourceGraphic"
         id="feGaussianBlur1004-3" />
      <feGaussianBlur
         stdDeviation="0.01"
         in="SourceGraphic"
         result="result1"
         id="feGaussianBlur1006-4" />
      <feComposite
         in2="result1"
         operator="arithmetic"
         in="fbSourceGraphic"
         k2="0.5"
         k3="0.5"
         result="result2"
         id="feComposite1008-3"
         k1="0"
         k4="0" />
      <feBlend
         in2="fbSourceGraphic"
         mode="normal"
         result="fbSourceGraphic"
         id="feBlend1010-78" />
      <feColorMatrix
         result="fbSourceGraphicAlpha"
         in="fbSourceGraphic"
         values="0 0 0 -1 0 0 0 0 -1 0 0 0 0 -1 0 0 0 0 1 0"
         id="feColorMatrix925" />
      <feGaussianBlur
         id="feGaussianBlur927"
         stdDeviation="5"
         result="fbSourceGraphic"
         in="fbSourceGraphic" />
      <feGaussianBlur
         id="feGaussianBlur929"
         stdDeviation="0.01"
         in="fbSourceGraphic"
         result="result1" />
      <feComposite
         in2="result1"
         id="feComposite931"
         operator="arithmetic"
         in="fbSourceGraphic"
         k2="0.5"
         k3="0.5"
         result="result2"
         k1="0"
         k4="0" />
      <feBlend
         in2="fbSourceGraphic"
         id="feBlend933"
         mode="normal"
         result="result3" />
    </filter>
  </defs>
  <sodipodi:namedview
     pagecolor="#ffffff"
     bordercolor="#666666"
     borderopacity="1"
     objecttolerance="10"
     gridtolerance="10"
     guidetolerance="10"
     inkscape:pageopacity="0"
     inkscape:pageshadow="2"
     inkscape:window-width="1366"
     inkscape:window-height="705"
     id="namedview67"
     showgrid="false"
     inkscape:zoom="0.70710678"
     inkscape:cx="500"
     inkscape:cy="124.7642"
     inkscape:window-x="-8"
     inkscape:window-y="-8"
     inkscape:window-maximized="1"
     inkscape:current-layer="svg65"
     inkscape:document-rotation="0"
     showguides="false">
    <inkscape:grid
       type="xygrid"
       id="grid870"
       originx="-109.12961"
       originy="-11.07058" />
  </sodipodi:namedview>
  <!-- Generated by Pixelmator Pro 2.0.3 -->
  <g
     id="g1586">
    <path
       id="path1123"
       style="font-weight:bold;font-size:231.642px;font-family:'Bauhaus 93';-inkscape-font-specification:'Bauhaus 93 Bold';letter-spacing:-8.86px;fill:#30b7da;fill-opacity:1;stroke-width:8.71136"
       d="m 253.03074,0 c -7.64174,0 -14.27767,3.1339753 -19.90843,9.4029144 -5.5302,6.1528376 -8.29471,13.4654746 -8.29471,21.9401336 0,9.055139 2.61279,16.485383 7.84135,22.289944 5.32912,5.80456 12.11676,8.706088 20.36179,8.706088 8.24504,0 14.98211,-2.901528 20.21067,-8.706088 5.32911,-5.804561 7.99247,-13.234805 7.99247,-22.289944 0,-8.474659 -2.81507,-15.787296 -8.44583,-21.9401336 C 267.25784,3.1339753 260.67247,0 253.03074,0 Z M 58.368034,74.008767 c -16.188415,0 -29.963194,6.8477 -41.325253,20.546482 C 5.6807215,108.13793 0,124.68027 0,144.18361 v 106.92178 h 56.406296 v -93.51143 c 0,-12.88614 3.118487,-19.32915 9.352537,-19.32915 3.418677,0 5.78142,1.39195 7.088558,4.17815 1.407679,2.78618 2.110064,7.77982 2.110064,14.97749 v 93.68494 h 56.409095 v -93.51143 c 0,-12.88614 3.16625,-19.32915 9.50086,-19.32915 3.41867,0 5.78143,1.39195 7.08857,4.17815 1.30715,2.78618 1.96174,7.77982 1.96174,14.97749 v 26.52685 c 0,36.69125 21.44053,68.51967 65.29591,68.16146 43.85538,-0.3582 65.86915,-22.80329 65.86915,-56.9871 V 77.490088 h -56.4063 V 178.61339 c 0,7.11967 -0.64917,11.48576 -1.94215,14.24177 -1.29297,2.75601 -3.62857,4.13337 -7.01021,4.13337 -6.26597,0 -9.39731,-5.79932 -9.39731,-18.54584 v -26.94384 c 0,-23.56654 -4.47545,-41.50361 -13.42434,-53.809296 -11.36206,-15.788428 -26.44325,-23.680787 -45.24594,-23.680787 -14.78073,0 -29.56127,8.124834 -44.34201,24.377613 C 90.042022,82.133601 75.059214,74.008767 58.368034,74.008767 Z"
       sodipodi:nodetypes="scscscscsscsccsscsccsssssssccssssscscs" />
    <path
       d="m 387.8173,98.386724 v 62.689316 h -17.04305 v 90.02884 H 309.53977 V 13.407875 h 61.23448 V 98.386724 Z M 459.45872,13.407875 V 251.10488 h -61.2345 V 13.407875 Z"
       style="font-weight:bold;font-size:231.642px;font-family:'Bauhaus 93';-inkscape-font-specification:'Bauhaus 93 Bold';letter-spacing:-8.86px;fill:#1080d1;fill-opacity:1;stroke-width:8.71136"
       id="path1125" />
    <path
       id="path1129"
       style="font-weight:bold;font-size:231.642px;font-family:'Bauhaus 93';-inkscape-font-specification:'Bauhaus 93 Bold';letter-spacing:-8.86px;fill:#1080d1;fill-opacity:1;stroke-width:8.71136"
       d="m 636.1464,13.408663 58.67017,105.701627 v 131.99342 h 61.23379 V 119.89108 L 698.28673,13.408663 Z m 117.18933,0 -22.79367,39.125638 30.85331,56.870849 52.87468,-95.996487 z"
       sodipodi:nodetypes="cccccccccccc" />
    <path
       id="rect1211"
       style="fill:#1080d1;fill-opacity:1;fill-rule:evenodd;stroke-width:119.038;stroke-linecap:round;paint-order:stroke fill markers"
       d="m 484.80698,44.874849 v 58.054591 c 9.50994,-13.971579 22.20262,-24.102641 36.95685,-30.93726 z m 142.06804,0 -36.95686,27.117331 c 14.75423,6.834619 27.44691,16.965681 36.95686,30.93726 z M 555.841,73.841972 c -43.68956,0 -79.4407,40.454968 -79.4407,90.368738 0,49.91376 35.75114,90.36872 79.4407,90.36872 43.68955,0 79.44055,-40.45496 79.44055,-90.36872 0,-49.91377 -35.751,-90.368738 -79.44055,-90.368738 z m 0,55.580748 c 16.09678,0 29.14624,15.63815 29.14624,34.9307 0,19.29257 -13.04946,34.9335 -29.14624,34.9335 -16.09679,0 -29.14624,-15.64093 -29.14624,-34.9335 0,-19.29255 13.04945,-34.9307 29.14624,-34.9307 z" />
    <path
       id="path1304"
       style="fill:#1080d1;fill-opacity:1;fill-rule:evenodd;stroke-width:119.038;stroke-linecap:round;paint-order:stroke fill markers"
       d="m 948.77923,59.780657 c -16.14937,4.3e-5 -30.55041,9.445956 -37.48084,15.67949 -6.93044,6.233534 -10.28869,8.955859 -13.61757,9.2249 -3.32903,0.269056 -5.21033,-0.749381 -8.78079,-2.622241 -10.06559,-5.279746 -21.2561,-8.221952 -33.02489,-8.221952 -43.68956,0 -79.4407,40.454956 -79.4407,90.368716 0,49.91377 35.75114,90.36874 79.4407,90.36874 43.68955,0 79.44055,-40.45497 79.44055,-90.36874 0,-21.42319 -6.61435,-41.07319 -17.59123,-56.5546 0,-16.949622 15.94032,-36.897398 41.16077,-36.897441 14.79148,-1.4e-5 30.5239,5.009243 41.11477,15.197976 C 991.32338,70.096639 973.93992,59.780599 948.77923,59.780657 Z M 855.87514,129.4216 c 16.09678,0 29.14624,15.63815 29.14624,34.9307 0,19.29257 -13.04946,34.93351 -29.14624,34.93351 -16.09679,0 -29.14624,-15.64094 -29.14624,-34.93351 0,-19.29255 13.04945,-34.9307 29.14624,-34.9307 z"
       sodipodi:nodetypes="szzssssscscssssss" />
  </g>
</svg>
